<svg xmlns="http://www.w3.org/2000/svg" width="130.095" height="87.597" viewBox="0 0 130.095 87.597">
    <g id="GTC_LOGO_1_RGB_cropped" transform="translate(-0.009)">
        <path id="Path_227" data-name="Path 227" d="M133.118,62.992a1.61,1.61,0,0,0-.283-.7,13.562,13.562,0,0,0-7.259-6.165l-.78-.3c.384-1.132.767-2.252,1.132-3.372a35.057,35.057,0,0,0,1.887-8.524c.308-4.592-.95-8.347-4.315-10.939-.038,0-.038-.094-.094-.252,2.214-.453,4.284,0,6.567.22a16.424,16.424,0,0,0-6.762-4.4,1.491,1.491,0,0,1-1.2-1.415c-.371-3.479-2.718-5.032-5.378-6.29a11.435,11.435,0,0,0-1.315-.421,4.24,4.24,0,0,0-4.3.893,16.412,16.412,0,0,1-8.36,3.5c-.1,1.22-.233,2.384-.283,3.548A3.54,3.54,0,0,0,104.8,32.15a4.183,4.183,0,0,0,1.963-.176,1.944,1.944,0,0,1,1.768.308,10.153,10.153,0,0,1,3.309,4.4c2.994-.113,4.913-2.139,6.234-6.592.063.057.157.088.164.145.409,3.435-2.346,7.391-5.624,8.071a7.443,7.443,0,0,1-.918.088c-.484.038-.711-.126-.793-.7a4.871,4.871,0,0,0-2.441-3.932,11.455,11.455,0,0,1-2.516,4.837,9.314,9.314,0,0,1-10.065,3.233c-1.422-.34-2.755-.975-4.183-1.315a20.894,20.894,0,0,0-12.3,1.051A54.726,54.726,0,0,0,67.527,48.2c-3.693,2.516-7.366,5.139-11.14,7.549A30.522,30.522,0,0,1,50.9,58.444H27.45A27.792,27.792,0,0,0,18.744,59.7,18.029,18.029,0,0,0,12.2,63.476c-.283.252-.56.516-.83.786a16.984,16.984,0,0,0-3.648,5.5c-.044.1-.088.208-.126.308l-4.466-.428c0,.333-.075.667-.075,1V82.5a1.956,1.956,0,0,0,.421,1.258c2.208,2.227,4.441,4.4,6.68,6.624A16.984,16.984,0,0,0,11.9,92.2a18.161,18.161,0,0,0,6.844,3.869,23.074,23.074,0,0,0,6.92.981,33.226,33.226,0,0,0,15.808-3.818c-.107-1.529-.164-3.177-.164-4.963a63.709,63.709,0,0,1,.44-9.159,18.688,18.688,0,0,1-3.435.384,33.033,33.033,0,0,1-3.875-.384q.327,5.353.327,8.014c0,.767-.05,2.422-.164,4.963a13.9,13.9,0,0,1-7.737,1.963,11.675,11.675,0,0,1-8.121-3.032,14.242,14.242,0,0,1-1.78-1.931q-3.321-4.3-3.328-11.392,0-7.794,3.6-12.046a11.782,11.782,0,0,1,1.51-1.459A13.543,13.543,0,0,1,27.6,61.4q7.851,0,10.411,5.12H49.769V83.782q0,1.887-.6,12.505c1.963-.214,3.2-.327,3.705-.327s1.887.113,3.982.327a69.049,69.049,0,0,1-.371-7.479V66.521H67.81q2.567-5.127,10.411-5.12,6.769,0,10.36,4.252T92.18,77.7q0,7.026-3.328,11.392a11.788,11.788,0,0,1-9.863,4.963q-7.31,0-12.581-6.215l-.629.384.629,5.4A28.012,28.012,0,0,0,80.2,97.055a19.994,19.994,0,0,0,13.059-4.271c1.95-1.34,6.36-6.2,8.266-8.347l.686-.679a1.082,1.082,0,0,0,.214-.34h0a2.441,2.441,0,0,0,.195-.906c.031-3.95,0-7.907,0-11.858,0-.333-.044-.667-.069-1l-4.315.415c-.044-.12-.088-.233-.138-.346a17.186,17.186,0,0,0-1.447-2.762,13.21,13.21,0,0,0,5.781-.365c.3-.082.629-.126,1-.214a21.815,21.815,0,0,1-2.478-15.349l.245-.057.038.824a31.811,31.811,0,0,0,.912,7.473,26.577,26.577,0,0,0,2.667,6.693c.962,1.61,2.151,3.063,3.214,4.611a2.516,2.516,0,0,1,.453,1.126,9.493,9.493,0,0,0,1.157,3.932,7.612,7.612,0,0,1,.352,6.1c-.214.73-.4,1.466-.629,2.189,1.937.711,2.239,2.516.937,5.309a7.549,7.549,0,0,1,1.711-.088,7.247,7.247,0,0,1,1.566.66,9.392,9.392,0,0,1,1.554-5.2c.12-.176,0-.554-.057-.824-.39-2.114-.843-4.215-1.17-6.347a3.774,3.774,0,0,1,.484-2.957,1.12,1.12,0,0,0,0-.774c-.189-.786-.409-1.56-.629-2.327s-.528-1.573-.742-2.378a5.529,5.529,0,0,1,1.642-5.705A22.222,22.222,0,0,0,119.512,57c.7-1.554,1.176-3.208,1.742-4.825.082-.214.12-.447.22-.661.371,4.913-2.516,8.436-5.448,11.952,1.692-1.1,3.894-.572,5.171-2.4,2.315.484,4.567.9,6.769,1.459a11.323,11.323,0,0,1,2.327,1.258c-1.774,1.409-3.309,2.736-4.951,3.869-.535.371-1.34.239-2.038.333-.3,1.547-.824,1.994-2.686,2.2-.038.56-.063,1.12-.132,1.68s-.182,1.126-.3,1.786a4.081,4.081,0,0,1,4.611-.629c.3-.7.535-1.4.881-2.038a6.743,6.743,0,0,1,3.988-3.315c1.17-.371,2.34-.774,3.447-1.139C133.15,65.238,133.156,64.105,133.118,62.992Z" transform="translate(-3.04 -9.46)" fill="#f2642b"/>
        <path id="Path_228" data-name="Path 228" d="M67.115,57.6a37.164,37.164,0,0,0,7.75-2.975C76.4,53.854,77.8,53,79.419,52.269q2.617-1.189,5.523-2.2a31.314,31.314,0,0,1,12.581-1.434c.7.05,1.422.132,2.378.226a35.384,35.384,0,0,0-11.172-2.082,38.674,38.674,0,0,0-14.952,2.057c-3.6,1.378-7.247,2.743-10.631,4.252-7.052,3.145-16.173,4.127-26.961,3.428-2.372-.157-4.774-.384-7.335-.629a82.169,82.169,0,0,0,10.065,2.246C49.539,59.824,58.969,59.685,67.115,57.6Z" transform="translate(-12.611 -19.313)" fill="#f2642b"/>
        <path id="Path_229" data-name="Path 229" d="M181.079,9.8c1.095.736,2.258,1.371,3.422,2.007a5.137,5.137,0,0,1,2.7,2.617,1.415,1.415,0,0,1-.667,2.026c.629,1.359,1.258,2.661,1.919,3.913a1.113,1.113,0,0,0,.818.5c1.787.145,3.63-1.717,3.774-3.825a5.032,5.032,0,0,0-2.095-4.68,33.34,33.34,0,0,0-4.259-2.3c-.629-.327-1.365-.522-2.026-.837-2.441-1.151-4.4-2.768-4.529-6.045l-.226-.057a6.417,6.417,0,0,0-.8,1.3A4.561,4.561,0,0,0,181.079,9.8Z" transform="translate(-68.262 -3.13)" fill="#f2642b"/>
        <path id="Path_230" data-name="Path 230" d="M165.531,10.16a8.222,8.222,0,0,1,3.554,6.737V17.2h.176c2.277-1.22,2.56-1.944,1.673-4.259a5.856,5.856,0,0,0-3.479-3.5c-1.22-.478-2.466-.9-3.7-1.352l-.157.252a18.665,18.665,0,0,0,1.931,1.818Z" transform="translate(-62.597 -4.97)" fill="#f2642b"/>
        <path id="Path_231" data-name="Path 231" d="M31.554,72.918c2.623.252,5.441.371,8.222.516a40.7,40.7,0,0,0,11.449-1.441,40.97,40.97,0,0,0,8.454-3.063c-.723.214-1.258.384-1.805.535a33.339,33.339,0,0,1-9.624,1.4c-1.491-.038-2.919-.12-4.271-.258-1.258-.12-2.34-.352-3.535-.51a33.011,33.011,0,0,0-6.007-.315c-6.29.264-13.449,1.805-21.476,4.542-2.516.856-5.032,1.831-7.6,2.957,1.937-.554,3.774-1.095,5.567-1.585C19.124,73.428,26.106,72.4,31.554,72.918Z" transform="translate(-3.897 -27.539)" fill="#f2642b"/>
    </g>
</svg>
